<svg width="24" height="24" viewBox="0 0 24 24" fill="none" xmlns="http://www.w3.org/2000/svg">
<path d="M21.6468 15.2625C21.7456 15.4342 21.7725 15.638 21.7216 15.8295C21.6706 16.021 21.546 16.1845 21.3749 16.2844C21.2619 16.3529 21.132 16.3886 20.9999 16.3875C20.8671 16.3887 20.7364 16.3546 20.6211 16.2887C20.5058 16.2228 20.41 16.1275 20.3436 16.0125L18.6186 13.0312C17.6065 13.7121 16.4926 14.2279 15.3186 14.5594L15.8624 17.6437C15.8953 17.8399 15.8498 18.0412 15.7359 18.2042C15.6219 18.3672 15.4485 18.4791 15.253 18.5156H15.1218C14.9452 18.5161 14.7742 18.4544 14.6387 18.3412C14.5032 18.228 14.412 18.0707 14.3811 17.8969L13.8468 14.8594C13.2353 14.9505 12.6181 14.9975 11.9999 15C11.3788 15.0003 10.7585 14.9564 10.1436 14.8688L9.60927 17.9062C9.57838 18.0801 9.48717 18.2374 9.3517 18.3506C9.21623 18.4637 9.04518 18.5255 8.86865 18.525H8.7374C8.54187 18.4884 8.3685 18.3766 8.25455 18.2136C8.1406 18.0505 8.09517 17.8493 8.12802 17.6531L8.68115 14.5594C7.50348 14.23 6.38619 13.7141 5.37177 13.0312L3.6374 16.0312C3.5704 16.1436 3.47582 16.2371 3.36262 16.3027C3.24942 16.3683 3.12135 16.404 2.99052 16.4062C2.85909 16.4058 2.7301 16.3708 2.61645 16.3048C2.5028 16.2388 2.4085 16.144 2.34298 16.0301C2.27747 15.9162 2.24305 15.787 2.24316 15.6556C2.24328 15.5242 2.27793 15.3951 2.34365 15.2812L4.17177 12.1125C3.53294 11.5646 2.94608 10.9589 2.41865 10.3031C2.35632 10.2271 2.30974 10.1395 2.28162 10.0453C2.25351 9.95112 2.24442 9.85228 2.25489 9.75455C2.26536 9.65682 2.29518 9.56216 2.34261 9.47607C2.39004 9.38998 2.45413 9.31419 2.53115 9.25312C2.60656 9.19027 2.69372 9.14303 2.78755 9.11416C2.88139 9.0853 2.98002 9.07537 3.07773 9.08497C3.17543 9.09456 3.27025 9.12349 3.35668 9.17006C3.4431 9.21663 3.5194 9.27992 3.58115 9.35625C4.16799 10.0879 4.83814 10.7486 5.57802 11.325H5.5874C7.4181 12.7531 9.67816 13.5196 11.9999 13.5C14.7468 13.5 16.8561 12.5344 18.403 11.3344H18.4218C19.1617 10.758 19.8318 10.0973 20.4186 9.36563C20.4797 9.28861 20.5555 9.22452 20.6416 9.17709C20.7277 9.12966 20.8223 9.09984 20.9201 9.08937C21.0178 9.0789 21.1166 9.08799 21.2108 9.1161C21.305 9.14421 21.3927 9.19079 21.4686 9.25312C21.5457 9.31419 21.6098 9.38998 21.6572 9.47607C21.7046 9.56216 21.7344 9.65682 21.7449 9.75455C21.7554 9.85228 21.7463 9.95112 21.7182 10.0453C21.6901 10.1395 21.6435 10.2271 21.5811 10.3031C21.0537 10.9589 20.4669 11.5646 19.828 12.1125L21.6468 15.2625Z" fill="#2B689B"/>
</svg>
